<svg width="86" height="20" viewBox="0 0 86 20" fill="none" xmlns="http://www.w3.org/2000/svg">
<path d="M13.5928 3.41931L10.7046 6.3075C9.53109 5.14539 8.46582 4.56433 7.50879 4.56433C6.9847 4.56433 6.57454 4.67826 6.27832 4.90613C5.9821 5.1226 5.83398 5.39604 5.83398 5.72644C5.83398 5.97709 5.92513 6.21065 6.10742 6.42712C6.30111 6.6322 6.76823 6.91703 7.50879 7.28162L9.21777 8.13611C11.0179 9.02478 12.2541 9.93054 12.9263 10.8534C13.5985 11.7762 13.9346 12.8586 13.9346 14.1005C13.9346 15.7525 13.325 17.1311 12.106 18.2362C10.8983 19.3413 9.27474 19.8939 7.23535 19.8939C4.52376 19.8939 2.35905 18.8344 0.741211 16.7152L3.6123 13.5878C4.15918 14.2258 4.7972 14.7442 5.52637 15.1429C6.26693 15.5303 6.92204 15.724 7.4917 15.724C8.10693 15.724 8.60254 15.5759 8.97852 15.2797C9.35449 14.9834 9.54248 14.6416 9.54248 14.2543C9.54248 13.5365 8.86458 12.8358 7.50879 12.1522L5.93652 11.3661C2.92871 9.85079 1.4248 7.95382 1.4248 5.67517C1.4248 4.20544 1.98877 2.95219 3.1167 1.91541C4.25602 0.867228 5.70866 0.34314 7.47461 0.34314C8.68229 0.34314 9.81592 0.610881 10.8755 1.14636C11.9465 1.67045 12.8522 2.4281 13.5928 3.41931ZM31.3662 0.821655H36.0146V19.4154H31.3662V17.4501C30.4548 18.316 29.5376 18.9426 28.6147 19.33C27.7033 19.7059 26.7121 19.8939 25.6411 19.8939C23.2371 19.8939 21.1579 18.9654 19.4033 17.1083C17.6488 15.2398 16.7715 12.9213 16.7715 10.1527C16.7715 7.28162 17.6203 4.92891 19.3179 3.0946C21.0155 1.26029 23.0776 0.34314 25.5044 0.34314C26.6209 0.34314 27.6691 0.553914 28.6489 0.975464C29.6287 1.39701 30.5345 2.02934 31.3662 2.87244V0.821655ZM26.4614 4.64978C25.0145 4.64978 23.8125 5.16248 22.8555 6.18787C21.8984 7.20186 21.4199 8.50639 21.4199 10.1014C21.4199 11.7079 21.9041 13.0295 22.8726 14.0663C23.8524 15.1031 25.0544 15.6215 26.4785 15.6215C27.9482 15.6215 29.1673 15.1145 30.1357 14.1005C31.1042 13.0751 31.5884 11.7364 31.5884 10.0844C31.5884 8.46651 31.1042 7.15629 30.1357 6.15369C29.1673 5.15108 27.9425 4.64978 26.4614 4.64978ZM39.9282 0.821655H54.1982L45.8242 15.4677H53.7197V19.4154H38.6465L47.0547 4.76941H39.9282V0.821655ZM70.5703 0.821655H75.2188V19.4154H70.5703V17.4501C69.6589 18.316 68.7417 18.9426 67.8188 19.33C66.9074 19.7059 65.9162 19.8939 64.8452 19.8939C62.4412 19.8939 60.362 18.9654 58.6074 17.1083C56.8529 15.2398 55.9756 12.9213 55.9756 10.1527C55.9756 7.28162 56.8244 4.92891 58.522 3.0946C60.2196 1.26029 62.2817 0.34314 64.7085 0.34314C65.825 0.34314 66.8732 0.553914 67.853 0.975464C68.8328 1.39701 69.7386 2.02934 70.5703 2.87244V0.821655ZM65.6655 4.64978C64.2186 4.64978 63.0166 5.16248 62.0596 6.18787C61.1025 7.20186 60.624 8.50639 60.624 10.1014C60.624 11.7079 61.1082 13.0295 62.0767 14.0663C63.0565 15.1031 64.2585 15.6215 65.6826 15.6215C67.1523 15.6215 68.3714 15.1145 69.3398 14.1005C70.3083 13.0751 70.7925 11.7364 70.7925 10.0844C70.7925 8.46651 70.3083 7.15629 69.3398 6.15369C68.3714 5.15108 67.1466 4.64978 65.6655 4.64978ZM82.4819 0.34314C83.2225 0.34314 83.8548 0.605184 84.3789 1.12927C84.903 1.65336 85.165 2.28569 85.165 3.02625C85.165 3.75541 84.903 4.38204 84.3789 4.90613C83.8548 5.43022 83.2225 5.69226 82.4819 5.69226C81.7414 5.69226 81.109 5.43591 80.585 4.92322C80.0609 4.39913 79.7988 3.76681 79.7988 3.02625C79.7988 2.28569 80.0609 1.65336 80.585 1.12927C81.109 0.605184 81.7414 0.34314 82.4819 0.34314ZM82.4819 14.5448C83.2225 14.5448 83.8548 14.8068 84.3789 15.3309C84.903 15.8436 85.165 16.4703 85.165 17.2108C85.165 17.9514 84.903 18.5837 84.3789 19.1078C83.8548 19.6319 83.2225 19.8939 82.4819 19.8939C81.7414 19.8939 81.109 19.6319 80.585 19.1078C80.0609 18.5837 79.7988 17.9514 79.7988 17.2108C79.7988 16.4703 80.0609 15.8436 80.585 15.3309C81.109 14.8068 81.7414 14.5448 82.4819 14.5448Z" fill="#141414"/>
</svg>
